<svg xmlns="http://www.w3.org/2000/svg" viewBox="0 0 200 200">
  <defs>
    <linearGradient id="gradW" x1="0%" y1="0%" x2="0%" y2="100%">
      <stop offset="0%" stop-color="#f90" />
      <stop offset="70%" stop-color="#f60" />
      <stop offset="100%" stop-color="#f50" />
    </linearGradient>
    <linearGradient id="gradS" x1="0%" y1="0%" x2="0%" y2="100%">
      <stop offset="0%" stop-color="#f90" />
      <stop offset="70%" stop-color="#f70" />
      <stop offset="100%" stop-color="#f50" />
    </linearGradient>
  </defs>
  <path d="M 0 60 L 0 200 L 100 150 L 200 200 L 200 60 L 180 50 L 180 170 L 100 130 L 20 170 L 20 50 Z" fill="url(#gradW)"/>
  <path d="M 160 60 L 160 40 L 100 10 L 40 40 L 40 100 L 100 70 L 140 90 L 140 110 L 100 90 L 40 120 L 40 140 L 100 110 L 160 140 L 160 80 L 100 50 L 60 70 L 60 50 L 100 30 Z" fill="url(#gradS)"/>
</svg>